# xmcd
#
# Track frame offsets:
#	150
#	9590
#	24661
#	34138
#	48340
#	56842
#	68623
#	79608
#	89641
#	101744
#	118175
#
# Disc length: 1702 seconds
#
# Revision: 1
# Processed by: cddbd v1.4PL0 Copyright (c) Steve Scherf et al.
# Submitted via: CDmax 1.8
#
DISCID=8f06a40b
DTITLE=Charley Pride - Someone Loves You Honey
DYEAR=1978
DGENRE=Country
TTITLE0=Someone Loves You Honey
TTITLE1=Georgia Keeps Pulling on My Ring
TTITLE2=I Live You
TTITLE3=Play, Guitar, Play
TTITLE4=Another I Love You Kind of Day
TTITLE5=More to Me
TTITLE6=Days of Our Lives
TTITLE7=Daydreams About Night Things
TTITLE8=Heaven Watches Over Fools Like Me
TTITLE9=The Days of Sand and Shovels
TTITLE10=I'm Never Leaving You
EXTD=
EXTT0=
EXTT1=
EXTT2=
EXTT3=
EXTT4=
EXTT5=
EXTT6=
EXTT7=
EXTT8=
EXTT9=
EXTT10=
PLAYORDER=
